<svg xmlns="http://www.w3.org/2000/svg" viewBox="0 0 256 256" enable-background="new 0 0 256 256"><style type="text/css">.st0{fill:#4F9AD4;}</style><path class="st0" d="M39.8 109.7s-1.9-4.5-1.9-10 1.9-10 1.9-10c-.3 0-37.5 10-37.5 10s37.2 10 37.5 10zM216.2 89.8s1.9 4.5 1.9 10-1.9 10-1.9 10c.3 0 37.5-10 37.5-10s-37.2-10-37.5-10z"/><circle class="st0" cx="89.4" cy="99.2" r="11.2"/><path class="st0" d="M196.7 85.3c1.4 0 2.6 1.2 2.6 2.6v23.7c0 1.4-1.2 2.6-2.6 2.6h-137.4c-1.4 0-2.6-1.2-2.6-2.6v-23.6c0-1.5 1.2-2.6 2.6-2.6h137.4m0-13.6h-137.4c-8.9 0-16.1 7.2-16.1 16.1v23.7c0 8.9 7.2 16.1 16.1 16.1h137.5c8.9 0 16.1-7.2 16.1-16.1v-23.6c0-9-7.3-16.2-16.2-16.2zM127 168.3c-20.4 0-37.6 30.8-37.6 67.2 0 4.1.2 8.2.7 12.2 10.4 3.3 23.2 5.3 36.9 5.3s26.5-2 36.9-5.3c.4-4 .7-8 .7-12.2 0-36.4-17.2-67.2-37.6-67.2zm-22.7 65.6c0 2.5-2 4.4-4.4 4.4-2.5 0-4.4-2-4.4-4.4v-15.5c0-2.4 2-4.4 4.4-4.4 2.4 0 4.4 2 4.4 4.4v15.5zm17.9 0c0 2.5-2 4.4-4.4 4.4s-4.4-2-4.4-4.4v-15.5c0-2.4 2-4.4 4.4-4.4 2.4 0 4.4 2 4.4 4.4v15.5zm17.8 0c0 2.5-2 4.4-4.4 4.4-2.4 0-4.4-2-4.4-4.4v-15.5c0-2.4 2-4.4 4.4-4.4 2.5 0 4.4 2 4.4 4.4v15.5zm17.9 0c0 2.5-2 4.4-4.4 4.4-2.4 0-4.4-2-4.4-4.4v-15.5c0-2.4 2-4.4 4.4-4.4 2.5 0 4.4 2 4.4 4.4v15.5zM63 116.2v11.5h92.8c1.7 0 3.1 1.4 3.1 3.1 0 1.7-1.4 3.1-3.1 3.1h-92.8v90.3c0 7.7 6.8 14.6 17.9 19.8-.2-2.8-.3-5.7-.3-8.6 0-42.6 20.4-76 46.4-76s46.4 33.4 46.4 76c0 2.9-.1 5.8-.3 8.6 11.1-5 17.9-12 17.9-19.7v-108.1h-128zM127 58.1c-2.2 0-4-1.8-4-4s1.8-4 4-4h63.5c-.7-2.2-1.6-4.4-2.5-6.6h-37.8c-3.7 0-6.7-3-6.7-6.7s3-6.7 6.7-6.7h30c-12.2-16.6-31.5-27-53.2-27-34.1 0-62.2 25.5-66.4 60.2h132.8c-.2-1.7-.5-3.4-.9-5.1l-65.5-.1zm4.7-28.4c3.9 0 7 3.1 7 7s-3.2 7-7 7c-3.9 0-7-3.2-7-7-.1-3.9 3.1-7 7-7z"/></svg>